<svg width="24" height="24" viewBox="0 0 24 24" fill="none" xmlns="http://www.w3.org/2000/svg"><path d="M23.21 12.318h-4.742a7.327 7.327 0 00-.393-1.646h5.209a.71.71 0 00.715-.699C24.061 4.405 19.505 0 14.01 0a.71.71 0 00-.716.706v5.39a7.6 7.6 0 00-1.628-.334V3.1a.71.71 0 00-.716-.706C4.899 2.394 0 7.226 0 13.197 0 19.167 4.898 24 10.95 24c2.423 0 4.72-.765 6.64-2.212a.7.7 0 00.132-.993l-1.65-2.103a7.55 7.55 0 001.279-1.51l2.059 2.625a.722.722 0 001 .129c2.202-1.66 3.484-4.176 3.516-6.904a.71.71 0 00-.716-.714zM14.725 1.44c4.123.334 7.525 3.596 7.823 7.819H17.38a7.582 7.582 0 00-2.655-2.535V1.44zm1.408 19.635a9.517 9.517 0 01-5.182 1.512c-5.25 0-9.52-4.213-9.52-9.39 0-4.942 3.888-9.004 8.804-9.366v1.93c-3.84.356-6.856 3.555-6.856 7.435 0 4.119 3.397 7.47 7.571 7.47 1.46 0 2.825-.411 3.983-1.12l1.2 1.53zm-5.183-1.822c-3.385 0-6.14-2.717-6.14-6.057 0-3.34 2.755-6.057 6.14-6.057 3.386 0 6.14 2.717 6.14 6.057 0 3.34-2.754 6.057-6.14 6.057zm9.136-.891l-2.03-2.588a7.33 7.33 0 00.445-2.046h3.951a7.309 7.309 0 01-2.366 4.634z" fill="#fff"/><path d="M12.293 12.727h-1.545a.666.666 0 01-.669-.663.665.665 0 01.679-.662h1.48c.264.002.525.12.716.323a.724.724 0 001.018.032.71.71 0 00.033-1.008 2.46 2.46 0 00-1.765-.774v-.622a.717.717 0 00-.72-.713c-.397 0-.72.32-.72.713v.622c-1.297 0-2.16.994-2.16 2.09a2.1 2.1 0 002.107 2.088h1.546c.368 0 .668.298.668.663 0 .352-.28.662-.678.662h-1.615a1.022 1.022 0 01-.558-.188.724.724 0 00-1.002.18.71.71 0 00.181.993c.505.347.967.442 1.511.442v.622c0 .394.323.713.72.713.398 0 .72-.32.72-.713v-.622c1.308 0 2.16-1.004 2.16-2.09a2.1 2.1 0 00-2.107-2.088z" fill="#fff"/></svg>