<svg width="24" height="24" viewBox="0 0 24 24" fill="none" xmlns="http://www.w3.org/2000/svg"><path d="M9.889 15.32l4.15-1.383L24 3.977 20.023 0l-9.96 9.96-1.384 4.151H0V24h23.996v-5.67H9.889v-3.01zM20.023 1.989l1.989 1.989-.995.994-1.988-1.988.994-.995zm-1.988 1.989l1.988 1.988-6.363 6.364-1.989-1.989 6.364-6.363zm-7.05 7.665l1.373 1.374-2.06.687.686-2.061zm-9.579 3.875h7.077v2.812H1.406v-2.812zm2.859 7.077H1.406v-2.859h2.859v2.859zm15.466-2.859h2.859v2.859h-2.86v-2.859zm-7.03 0h5.624v2.859H12.7v-2.859zm-1.406 0v2.859H5.67v-2.859h5.624z" fill="#fff"/></svg>