<svg width="25" height="26" viewBox="0 0 25 26" fill="none" xmlns="http://www.w3.org/2000/svg"><path d="M23.701 9.99L14.357 1.7a2.528 2.528 0 00-3.494 0L7.734 4.546V3.448h.406c.244 0 .407-.163.407-.406V1.416c0-.243-.163-.406-.407-.406H3.265c-.244 0-.406.163-.406.406v1.626c0 .243.162.406.406.406h.406V8.12L1.518 9.99a.956.956 0 00-.244 1.015c.122.325.488.569.853.569h1.544V22.95h-.406c-.244 0-.406.162-.406.406v1.625c0 .244.162.407.406.407h18.69c.203 0 .406-.163.406-.447v-1.625a.369.369 0 00-.122-.285.37.37 0 00-.285-.122h-.406V11.533h1.544c.406 0 .731-.203.853-.569a.891.891 0 00-.244-.975zm-.528.73c-.04.041-.081.041-.081.041h-1.95c-.244 0-.407.163-.407.406v12.19c0 .243.163.405.407.405h.406v.813H3.671v-.813h.406c.244 0 .407-.162.407-.406V11.167c0-.243-.163-.406-.407-.406h-1.95c-.04 0-.081 0-.081-.04 0-.041 0-.082.04-.122l2.276-1.95a.461.461 0 00.122-.326V3.042c0-.244-.163-.407-.407-.407h-.406v-.812h4.063v.812h-.406c-.244 0-.406.163-.406.407v2.437c0 .163.08.325.243.447.163.04.325.04.447-.081l3.82-3.494c.65-.65 1.665-.65 2.356 0l9.345 8.288c.04 0 .08.04.04.082z" fill="#fff" stroke="#fff"/><path d="M15.047 12.386h-1.625v-1.625h1.219c.244 0 .406-.162.406-.406 0-.244-.162-.406-.406-.406h-3.25c-.244 0-.407.162-.407.406 0 .244.163.406.407.406h1.219v1.625H7.328c-.244 0-.407.163-.407.407v2.438c0 .243.163.406.407.406h7.15c.082 0 .163.081.163.162v2.276c0 .243.162.406.406.406h2.438c.244 0 .406-.163.406-.407V15.23a2.826 2.826 0 00-2.844-2.844zm2.032 5.282h-1.626V15.8a.989.989 0 00-.975-.975H7.734V13.2h7.313c1.138 0 2.032.894 2.032 2.031v2.438h0zm-.529 1.747a.393.393 0 00-.568 0l-.813.813a1.544 1.544 0 001.097 2.641c.406 0 .813-.122 1.097-.447.61-.61.61-1.585 0-2.194l-.813-.813zm.244 2.438a.76.76 0 01-1.056 0 .76.76 0 010-1.056l.528-.529.528.529a.76.76 0 010 1.056z" fill="#fff" stroke="#fff"/></svg>