<svg width="26" height="26" viewBox="0 0 26 26" fill="none" xmlns="http://www.w3.org/2000/svg"><path d="M24.645 18.241l-.681-.17-.33-.793.362-.6a.469.469 0 00-.07-.574l-1.093-1.092a.469.469 0 00-.573-.07l-.6.36-.795-.329-.17-.68a.469.469 0 00-.454-.356h-.21v-9.75c0-.965-1.031-1.785-2.983-2.371C15.296 1.29 12.977 1 10.516 1c-2.461 0-4.781.29-6.532.816C2.032 2.402 1 3.222 1 4.187v17.626c0 .965 1.032 1.785 2.984 2.371 1.751.526 4.07.816 6.532.816 1.04 0 2.06-.052 3.033-.154a.469.469 0 00-.097-.932 28.25 28.25 0 01-2.936.148c-2.372 0-4.596-.275-6.263-.776-1.709-.514-2.316-1.114-2.316-1.473v-4.416c.495.345 1.18.651 2.047.912 1.751.526 4.07.816 6.532.816.718 0 1.434-.025 2.127-.075a.469.469 0 00-.067-.935c-.67.048-1.364.072-2.06.072-2.372 0-4.596-.276-6.263-.776-1.709-.514-2.316-1.115-2.316-1.473V11.52c.495.345 1.18.652 2.047.912 1.75.527 4.07.816 6.532.816 2.46 0 4.78-.29 6.532-.816.867-.26 1.552-.567 2.046-.912v2.416h-.398a.469.469 0 00-.455.356l-.17.68-.793.33-.6-.362a.469.469 0 00-.574.07l-1.092 1.093a.469.469 0 00-.07.573l.36.6-.329.795-.68.17a.469.469 0 00-.356.454v1.545a.47.47 0 00.356.455l.68.17.33.794-.362.6a.469.469 0 00.07.573l1.093 1.093a.469.469 0 00.573.07l.6-.361.795.329.17.68c.052.21.24.356.454.356h1.545a.469.469 0 00.455-.355l.17-.681.794-.33.6.362a.47.47 0 00.573-.07l1.093-1.093a.47.47 0 00.07-.573l-.361-.6.329-.795.68-.17A.469.469 0 0025 20.24v-1.545a.469.469 0 00-.355-.455zM4.253 2.714c1.667-.5 3.89-.776 6.263-.776 2.372 0 4.596.275 6.262.776 1.71.513 2.316 1.114 2.316 1.473s-.607.96-2.316 1.473c-1.666.5-3.89.777-6.262.777-2.373 0-4.596-.276-6.263-.777-1.709-.513-2.316-1.114-2.316-1.473s.607-.96 2.316-1.473zm12.525 8.822c-1.666.5-3.89.776-6.262.776-2.373 0-4.596-.276-6.263-.776-1.709-.514-2.316-1.115-2.316-1.474V5.646c.495.345 1.18.652 2.047.912 1.75.526 4.07.816 6.532.816 2.46 0 4.78-.29 6.532-.816.867-.26 1.552-.567 2.046-.912v4.416c0 .359-.607.96-2.316 1.474zm7.285 8.339l-.555.138a.469.469 0 00-.32.275l-.51 1.231a.469.469 0 00.032.42l.294.49-.575.575-.489-.294a.469.469 0 00-.42-.032l-1.232.51a.469.469 0 00-.275.32l-.138.554h-.812l-.138-.554a.469.469 0 00-.276-.32l-1.23-.51a.47.47 0 00-.422.032l-.489.294-.574-.575.294-.49a.468.468 0 00.031-.42l-.51-1.23a.469.469 0 00-.32-.276l-.554-.138v-.812l.554-.139a.469.469 0 00.32-.275l.51-1.23a.468.468 0 00-.031-.422l-.294-.489.574-.574.49.294a.469.469 0 00.42.031l1.231-.51a.469.469 0 00.275-.32l.139-.554h.812l.138.554a.469.469 0 00.275.32l1.231.51a.47.47 0 00.421-.031l.49-.294.574.574-.294.49a.469.469 0 00-.032.42l.51 1.231c.057.137.176.24.32.275l.555.139v.812z" fill="#1F402A" stroke="#1F402A"/></svg>