<svg width="26" height="26" viewBox="0 0 26 26" fill="none" xmlns="http://www.w3.org/2000/svg"><path d="M19.16 9.166a2.191 2.191 0 00-.209-.387h1.22c1.19 0 2.157-.98 2.157-2.182 0-1.203-.967-2.182-2.156-2.182h-3.754c.239-.351.379-.776.379-1.233C16.797 1.979 15.829 1 14.64 1H3.156C1.967 1 1 1.979 1 3.182c0 1.203.967 2.182 2.156 2.182H6.91a2.187 2.187 0 00-.379 1.233c0 .457.14.882.379 1.233H5.687c-1.188 0-2.156.979-2.156 2.182 0 .69.32 1.307.817 1.707a2.188 2.188 0 00-.817 1.708c0 .69.32 1.307.817 1.707a2.188 2.188 0 00-.817 1.708c0 .69.32 1.307.817 1.707a2.188 2.188 0 00-.817 1.708c0 1.203.968 2.182 2.156 2.182h5.525A7.905 7.905 0 0017.032 25C21.424 25 25 21.383 25 16.937c0-3.7-2.476-6.826-5.84-7.771zm1.012-3.802c.672 0 1.219.553 1.219 1.233s-.547 1.233-1.22 1.233H8.688A1.227 1.227 0 017.47 6.597c0-.68.546-1.233 1.218-1.233h11.485zM3.156 4.415a1.227 1.227 0 01-1.219-1.233c0-.68.547-1.233 1.22-1.233H14.64c.672 0 1.218.553 1.218 1.233s-.546 1.233-1.218 1.233H3.156zm2.531 4.364h11.485c.189 0 .37.044.532.124a7.898 7.898 0 00-6.311 2.342H5.686a1.227 1.227 0 01-1.218-1.233c0-.68.546-1.233 1.218-1.233zm0 3.415h4.904a8.078 8.078 0 00-1.205 2.466H5.687a1.227 1.227 0 01-1.218-1.233c0-.68.546-1.233 1.218-1.233zm0 3.415h3.484a8.175 8.175 0 00-.029 2.466H5.687a1.227 1.227 0 01-1.218-1.233c0-.68.546-1.233 1.218-1.233zm0 5.881a1.227 1.227 0 01-1.218-1.233c0-.68.546-1.233 1.218-1.233h3.647c.236.892.62 1.724 1.124 2.466h-4.77zm11.344 2.561c-3.877 0-7.031-3.191-7.031-7.114s3.154-7.115 7.031-7.115 7.032 3.192 7.032 7.115-3.155 7.114-7.032 7.114z" fill="#1F402A" stroke="#1F402A" stroke-width=".2"/></svg>