<svg width="10" height="16" viewBox="0 0 10 16" fill="none" xmlns="http://www.w3.org/2000/svg"><path d="M9.557.444V.443A1.502 1.502 0 008.493 0H1.505A1.51 1.51 0 000 1.505v12.857c0 .4.16.783.443 1.064a1.5 1.5 0 001.062.443h6.99c.399 0 .781-.16 1.062-.443.283-.281.442-.663.443-1.062V1.507c0-.4-.16-.781-.443-1.063zM5 14.847a.407.407 0 110-.813.407.407 0 010 .813zm3.805-2.552c0 .543-.44.984-.984.984H2.177a.984.984 0 01-.984-.984V2.713c0-.543.44-.983.984-.983h5.646c.543 0 .984.44.984.983l-.002 9.582z" fill="#fff"/></svg>