<svg width="22" height="25" viewBox="0 0 22 25" fill="none" xmlns="http://www.w3.org/2000/svg"><path d="M19.48 8.552a8.552 8.552 0 00-17.104 0C1.155 8.704 0 9.502 0 11.355v4.466c0 2.09 1.463 2.85 2.85 2.85h1.378a.475.475 0 00.476-.474V8.998a.475.475 0 00-.476-.475h-.902a7.602 7.602 0 0115.203 0h-.903a.475.475 0 00-.475.475v9.184c0 .263.213.475.475.475h.903c-.133 3.264-1.7 4.03-4.832 4.167v-.318a.95.95 0 00-.95-.95H9.76a.95.95 0 00-.95.95v1.544c0 .525.425.95.95.95h2.998a.95.95 0 00.95-.95v-.276c3.012-.137 5.616-.76 5.772-5.145 1.221-.152 2.376-.95 2.376-2.803V11.36c0-1.863-1.15-2.656-2.376-2.808zM3.752 9.44v8.267h-.926c-.703 0-1.9-.247-1.9-1.9V11.34c0-1.64 1.182-1.9 1.9-1.9h.926zm9.004 13.892v.723H9.759V22.51h2.998v.821zm8.148-7.511c0 1.64-1.183 1.9-1.9 1.9h-.903V9.474h.926c.703 0 1.9.247 1.9 1.9l-.023 4.447z" fill="#A6A6A6"/></svg>