<svg width="54" height="54" viewBox="0 0 54 54" fill="none" xmlns="http://www.w3.org/2000/svg"><path d="M27.063 53.368c14.597 0 26.43-11.82 26.43-26.4 0-14.58-11.833-26.4-26.43-26.4S.633 12.388.633 26.968c0 14.58 11.833 26.4 26.43 26.4z" fill="#35B558"/><path d="M27 54C12.14 54 0 41.874 0 26.968 0 12.126 12.14 0 27 0c14.922 0 27 12.126 27 26.968C54.063 41.874 41.922 54 27 54zM27 .758C12.52.758.759 12.505.759 26.968c0 14.464 11.824 26.274 26.304 26.274 14.48 0 26.304-11.81 26.304-26.274C53.367 12.505 41.543.758 27 .758z" fill="#fff"/><path d="M15.934 21.032v.758c0 .378-.063.694-.19 1.01a2.646 2.646 0 01-.569.884 3.174 3.174 0 01-.885.632c-.316.126-.695.252-1.075.252-.316 0-.632-.063-.948-.126-.316-.063-.632-.253-.885-.442a1.884 1.884 0 01-.633-.884c-.19-.38-.253-.821-.253-1.326v-6.57c0-.379.064-.758.19-1.074a2.65 2.65 0 01.57-.884c.252-.252.505-.442.884-.568.317-.127.696-.19 1.139-.19.822 0 1.454.253 1.96.758.253.253.442.569.569.884.126.38.19.758.19 1.137v.632H14.29v-.569c0-.315-.063-.631-.253-.884a.902.902 0 00-.758-.379c-.443 0-.696.127-.822.38-.253.378-.317.694-.317 1.136v6.063c0 .316.064.632.253.884.127.253.443.38.822.38.127 0 .253 0 .38-.064l.38-.19c.126-.063.189-.189.252-.378a1.52 1.52 0 00.127-.569v-.568h1.58v-.126zm4.11-6.948v4.295c0 .442-.063.884-.063 1.39l-.19 1.515c-.063.506-.19.884-.379 1.263a3.691 3.691 0 01-1.012 1.327c-.38.316-.885.505-1.517.505h-.127v-1.642c.317 0 .57-.127.76-.316.189-.19.315-.379.442-.631.126-.253.19-.506.253-.822a5.55 5.55 0 00.126-1.073c.063-.38.063-.758.063-1.137V12.63h4.932v11.811h-1.707V14.084h-1.58zM25.61 22.8c.126 0 .316 0 .506-.063s.379-.127.442-.19.19-.252.316-.442c.127-.19.19-.442.316-.82l.127-.632-2.53-8.021h1.771l1.581 5.557h.063l1.265-5.557h1.77L28.77 21.6c-.126.568-.316 1.01-.505 1.453-.19.442-.443.758-.76 1.01-.252.253-.568.38-.821.38-.317.062-.633.062-.949.062h-.253V22.8h.127zm6.955 1.642v-11.81h4.743v1.579h-3.035v10.231h-1.708zm3.984 0l2.655-11.81h1.392l2.655 11.81h-1.707l-.506-2.526h-2.34l-.505 2.526h-1.644zm4.173-4.168l-.822-4.295h-.063l-.822 4.295h1.707zM5.691 38.779v-11.81h1.707v5.052h2.087v-5.053h1.707v11.81H9.485v-5.241H7.398v5.242H5.691zm6.766 0l2.655-11.81h1.391l2.593 11.81h-1.707l-.506-2.526h-2.277l-.505 2.526h-1.644zm4.173-4.105l-.822-4.295h-.063l-.822 4.295h1.707zm3.73 4.105v-11.81h2.53c.442 0 .885.063 1.201.189.38.126.696.316.949.631.316.316.506.695.569 1.074.126.442.19.948.19 1.705 0 .506 0 .948-.064 1.327-.063.379-.19.695-.38 1.01-.252.38-.568.695-.948.884-.379.19-.885.316-1.517.316h-.886v4.61H20.36v.064zm1.708-10.232v4.043h.822c.316 0 .632-.064.822-.127.19-.126.316-.252.442-.442.064-.19.127-.379.127-.631v-1.58c0-.252-.063-.442-.127-.631-.063-.19-.253-.316-.379-.442-.19-.127-.443-.127-.759-.127h-.948v-.063zm5.374 1.2c0-.505.064-.884.253-1.263.19-.379.38-.695.633-.884.253-.253.569-.379.885-.505a2.85 2.85 0 011.012-.19c.316 0 .695.063 1.011.19.316.126.633.316.949.505.253.253.506.568.632.884.19.38.253.758.253 1.263V36c0 .505-.063.947-.253 1.263-.19.38-.38.632-.632.884a2.38 2.38 0 01-.949.569 2.87 2.87 0 01-1.011.19c-.317 0-.696-.064-1.012-.19a2.653 2.653 0 01-.885-.569c-.253-.252-.506-.505-.633-.884-.19-.379-.253-.758-.253-1.263v-6.253zM29.15 36c0 .379.126.695.316.884.253.19.506.316.822.316.316 0 .569-.126.822-.316s.316-.505.316-.884v-6.253c0-.379-.126-.694-.316-.884-.253-.19-.506-.316-.822-.316-.316 0-.57.127-.822.316-.253.19-.316.505-.316.884V36zm6.386 2.779v1.831h-1.454v-3.284h.885c.127-.19.19-.442.253-.694.063-.253.19-.569.253-.885l.19-.947c.063-.316.126-.632.126-.947 0-.253.063-.506.063-.758 0-.316 0-.569.064-.884v-5.243h4.868v10.295h.949v3.284h-1.454v-1.831h-4.743v.063zm1.96-10.295v2.653c0 .316 0 .631-.063.947 0 .316-.063.695-.063 1.01 0 .38-.063.632-.063.948 0 .253-.064.442-.127.758-.063.253-.126.568-.19.884-.063.316-.126.569-.19.884-.063.316-.189.569-.252.758h2.53v-8.842h-1.582zm5.628 8.716c.126 0 .316 0 .506-.063s.38-.127.442-.19c.064-.063.19-.252.316-.442.127-.19.19-.442.317-.82l.126-.632-2.53-8.085h1.771l1.581 5.558h.063l1.265-5.558h1.77l-2.465 8.969c-.127.568-.317 1.01-.506 1.453-.19.442-.443.757-.76 1.01-.252.253-.568.379-.821.379-.316.063-.633.063-.949.063h-.253v-1.705h.127v.063z" fill="#F9DD4B"/></svg>