<svg width="23" height="31" viewBox="0 0 23 31" fill="none" xmlns="http://www.w3.org/2000/svg"><path d="M21.606 14.978c0-.008.008-.008.008-.008l-.008.008zm0 0c.057-.065.033-.032 0 0zM1.547 14.58v-.008c.008-.016.008-.016 0 .008zm0 0l-.008.04c0-.015.008-.032.008-.04zm19.872-.171l.024-.008c0-.008-.008 0-.024.008zm0 0s0 .008-.009.008c.017-.008.017-.008.009-.008zM11.206 29.593c-.155-.229-.27-.204-.342-.017-.147-.318-.302-.44-.449-.521-.212.366-.424.407-.611.048-.84-1.393-1.98-1.508-3.643-2.42-2.804-1.557-5.877-3.97-3.44-8.795-.326-.138-.579-.513-.489-1.133.122-.815-.269-1.239-.734-1.369-.31-.155-.432-.383-.497-.71-.04-.806.946-1.148 1.402-.61.302.415.057.888-.163.994.652-.245.742-1.01.668-3.122-.048-1.491-.195-2.486-.423-2.975.016.05.04.106.057.171-.025.734-1.394.856-1.427-.252.057-.497.383-.742.742-.775l-.016-.016C3.65 7.97 3.153 7.04 3.47 6.624c.301-.562 1.01-.685 1.565.008.269.228.505.367.742.44.114.041.228.057.342.065.579.033 1.157-.317 2.013-.839L7.53 3.82l-.84-.432-.456-1.703 2.404-.579 1.06.774.18 1.394.676-.065-.31-.49L10.187 1h2.926l-.065 1.72-.302.489.677.065.18-1.394 1.059-.774 2.404.579-.456 1.703-.84.432-.603 2.478c.685.416 1.19.725 1.663.815.114.024.236.033.35.024.343-.016.685-.17 1.084-.505.204-.26.432-.4.652-.456.082-.017.147-.017.22-.017.286.017.538.188.693.465.318.416-.187 1.345 1.622 1.467l-.008.016c.359.033.685.277.742.775-.041 1.108-1.402.986-1.427.252a.855.855 0 01.057-.17c-.228.488-.375 1.483-.423 2.974-.074 2.111.016 2.877.668 3.122-.22-.106-.465-.579-.163-.995.448-.537 1.443-.195 1.402.612-.065.326-.188.554-.497.709-.465.13-.856.554-.734 1.37.09.619-.163.994-.489 1.132 2.437 4.825-.644 7.238-3.44 8.795-1.662.913-2.803 1.027-3.643 2.42-.195.359-.4.318-.611-.049-.147.082-.302.204-.448.522-.074-.187-.188-.212-.343.016-.065.098-.154.229-.448.408-.285-.18-.375-.31-.44-.408h0zM2.72 17.888v.008-.008zm-.636-2.796h-.04.04zm19.17 0h0zm-19.072-.016l-.098.016c-.032 0 .033 0 .098-.016zm19.032.016l-.098-.016c.065.016.13.016.098.016zM1.97 15.085l.025.008h.049c-.033 0-.058 0-.074-.008v0zm19.285.008h.048l.025-.008c-.008 0-.033.008-.073.008zm-19.26 0c-.033-.008-.041-.008-.025-.008h-.04.032c.008.008.016.008.033.008zm19.308 0c.033-.008.066-.008.025-.008.016 0 .008 0-.025.008zm-19.406-.016h.008l.024.008c-.016-.008-.024-.008-.032-.008h0zm19.472.008l.024-.008h.008c.008 0-.008 0-.032.008h0zM2.24 15.06c-.024.008-.04.016-.057.016.016 0 .033-.008.057-.016zm18.82 0c.024.008.04.016.057.016a.153.153 0 01-.057-.016zm-19.17.016c-.041-.016-.025-.008 0 0h.016c-.016 0-.024-.008-.016 0zm19.504 0c.025-.008.057-.016.008 0 .017-.008.017-.008-.008 0zm-19.496 0l-.05-.016.034.008s.008.008.016.008v0zm19.504 0l.05-.016-.05.016zm-19.578-.024h.009l.016.008c-.008 0-.016-.008-.025-.008h0zm19.627.008l.017-.008h.008c.008-.008-.008 0-.025.008h0zm-19.635-.008c-.032-.017-.024-.008 0 0h.017c-.017 0-.025-.008-.017 0zm19.652 0c.032-.008.056-.017.008 0 .024-.008.016-.008-.008 0zm-19.644 0l-.032-.017.024.009c-.008 0-.008 0 .008.008h0zm19.652 0l.032-.017-.032.017zM1.75 15.019h.008l.033.016a.139.139 0 00-.041-.016h0zm19.757.016l.033-.016h.008a.126.126 0 00-.04.016h0zm-19.765-.024s.008.008.016.008c-.016-.008-.024-.008-.016-.008zm19.814 0c.008 0-.008 0-.016.008.016-.008.024-.008.016-.008zm0 0c.017-.008.017-.008 0 0l-.008.008c0-.008.008-.008.008-.008zm-19.806.008l-.016-.008c-.016-.016-.008-.008.008 0l.008.008h0zm-.057-.04l.04.032c-.015-.016-.032-.033-.04-.033zm19.863.032l.049-.033c.016-.008.016-.016 0 0 0 0-.016.008-.049.033zm-19.871-.04l.008.007c-.016-.008-.016-.016-.008-.008zm19.92.007c.033-.032.065-.073 0 0 .008-.008 0 0 0 0zm-19.912 0l-.008-.008c-.016-.008-.008-.008.008.008zm19.912 0c.008-.016 0-.008 0 0v0zm-19.912 0l-.13-.179c-.033-.049-.017 0 .09.13-.009-.008.008.017.04.05v0zm19.912 0l.13-.179.008-.049a2.336 2.336 0 01-.138.228h0zm0 0l.008-.008-.008.008zm-19.92-.008c-.049-.057-.024-.024.008.008-.04-.04-.065-.073-.008-.008zm19.92.008l.016-.016c-.008 0-.008.008-.016.016zm0 0c.073-.081.073-.081.057-.065l-.057.065zm.008-.008c.008-.008.008-.008 0 0v0zm.049-.057c.008-.016 0 0-.04.05a.255.255 0 01.04-.05zm-19.977.057c-.008-.008-.008-.008 0 0v0zm19.928 0c.008-.008.008-.008 0 0v0zm-19.96-.04c-.033-.033-.033-.033.032.04l-.033-.04zm-.09-.131l-.033-.163c-.008.033-.008.09.033.163zm20.205-.163l-.024.114c.016-.024.008-.008-.009.049.041-.073.041-.13.033-.163h0zm-20.238 0l.008-.016c0-.025 0 0-.008.016zm20.238 0c-.008-.016-.008-.04-.008-.016l.008.016zm-.008-.016l-.008-.041c-.008-.016-.008-.024 0-.008v.008c0-.008 0 .016.008.04zm-20.214-.05s0-.007.008-.007c.025-.066 0-.025-.008.016v-.008 0zm20.206.009c-.009-.04-.033-.082-.009-.016 0 .008.009.008.009.016zm-20.206 0l.065-.114h-.008c-.016.016-.024.04-.049.098-.008 0-.008.008-.008.016h0zm20.206-.008c-.05-.098-.057-.098-.057-.106h-.009l.066.114c0-.008-.008-.016 0-.008h0zm0 0c-.033-.065-.025-.04 0 0-.017-.025-.017-.033 0 0zm-.008-.008c0-.008-.009-.017.008.008l-.008-.008zm-19.83-.123a.11.11 0 01.024.033c-.017-.024-.033-.04-.025-.033zm19.471 0c0-.008-.016.009-.024.033a.108.108 0 01.024-.033zm-19.782.025s.009 0 0 0h.009v-.008c0 .008-.009.008-.009.008zm0 0c.017-.017.009-.008 0 0 .009-.008.017-.017 0 0zm20.092 0c-.008-.008-.017-.017 0 0v0zm-.008-.008s0 .008.008.008c0 0-.008 0-.008-.008zm-20.075.008h-.009.009zm20.083 0c-.009-.008-.017-.017-.008 0h.008zm-20.083 0v-.008.008zm20.075 0v-.008c-.017-.017-.017-.009 0 0v.008zm0-.008v.008-.008zm-20.075 0c.008-.009.008-.009 0 0 .016-.017.016-.009 0 0zm20.075 0c-.009-.009-.009-.009 0 0v0zm-20.075 0c.008-.017.008-.009 0 0v0zm20.075 0c-.009-.009-.017-.017 0 0v0zm-20.075 0l.04-.041a.162.162 0 01.066-.033c-.017 0-.041.017-.066.033l-.04.04zm20.075 0l-.041-.041a.231.231 0 000 0l.04.04zm-.302-.017l.016-.016c.008-.008-.008 0-.016.016zm-19.472 0l-.016-.016.016.016zm-.016-.016l-.016-.008v-.008c0 .008.008.008.016.016v0zm19.52-.016l-.008.008-.008.008.017-.016h0zm-19.536 0c-.017-.008-.009 0 0 .008-.009-.008-.009-.008 0-.008zm0 0l-.025-.008.025.008zm-.025-.008l-.008-.008c-.016-.008-.033-.008 0 0-.008 0 0 0 .008.008zm19.594-.008h-.008v.008c.008-.008.016-.008.008-.008zm-19.602 0c-.008 0-.008 0 0 0v0zm19.602 0h-.008c.024-.008.04-.008.008 0zm.033-.008l-.041.008h.008l.033-.008h0zm-19.668 0l.033.008-.033-.008zm-.09 0h-.008.009zm19.855 0h-.008c-.024 0-.032-.009 0 0h.008zm-19.765 0c-.024-.009-.04-.009-.008 0h.008zm19.676 0h-.008.008zm-19.765 0c.016 0 .008 0 0 0 .016 0 .032-.009 0 0zm19.846 0c-.008 0-.016 0 0 0v0zm-19.822 0h-.024.024zm19.798 0h.024-.024zm-19.733 0h-.008.008zm19.676 0h-.008c.024-.009.04-.009.008 0zm-19.708 0h.032-.032 0zm19.732 0h-.032.032zM1.67 9.011c-.008 0 .016.114.09.212a.442.442 0 01-.09-.212zm19.952 0a.362.362 0 01-.081.212c.073-.098.098-.212.081-.212zm-19.952 0v-.057.057zm19.952-.057v.057c.008-.032.008-.073 0-.057zM2.256 8.662c.082.057.155.155.229.301-.057-.138-.13-.244-.229-.301zm18.788 0c-.098.057-.172.163-.229.301.074-.146.147-.244.229-.301zm-19.366.236V8.89v.016l-.008.05a.184.184 0 00.008-.058v0zm19.944.057v-.049c0-.008-.008-.024 0-.016-.008-.016-.008-.008 0 .008v.057zM1.678 8.882v.024c0-.032.008-.065 0-.024zm19.944.024v-.024c-.008-.041 0-.008 0 .024zM1.678 8.898l.073-.171a.517.517 0 00-.065.147c0 .008-.008.016-.008.024h0zm19.936-.008c-.049-.139-.057-.147-.065-.163l.073.171s0-.008-.008-.008h0zm0 0c.008 0 .008 0 .008.008 0-.008-.008-.008-.008-.008zM1.686 8.874c.008-.041.008-.057-.008.008v.008s.008-.008.008-.016v0zm19.936.008c-.016-.065-.016-.05-.008-.008l.008.016v-.008 0zm-.008-.008c-.016-.041-.016-.05 0 .016v-.016zM1.76 8.719l.008-.016c0 .008-.008.016-.016.024.016-.016.016-.024.008-.008h0zm19.765-.016l.017.016.008.008-.025-.024h0zm-19.773.024l.04-.04-.016.016-.016.016c.008-.016 0-.008-.008.008h0zm19.79-.008l-.017-.016-.016-.017.04.041c-.007-.016-.015-.024-.007-.008h0zm-.017-.016c0-.009 0-.009 0 0-.024-.025-.008-.017 0 0zm-19.749 0c0-.009 0-.009-.008 0 .017-.017.025-.025.008 0zm.253-.09c.016-.008.033-.008.049-.008h-.065a.323.323 0 00-.22.081c.09-.065.155-.081.236-.073v0zm19.252-.008h-.057c.016 0 .033 0 .049.008.081-.008.146.008.236.073a.33.33 0 00-.228-.081v0zm-19.203 0c.065 0 .122.016.18.057a.357.357 0 00-.18-.057zm19.146 0a.293.293 0 00-.18.057.357.357 0 01.18-.057z" stroke="#1CA856" stroke-width=".413" stroke-miterlimit="22.926" stroke-linecap="round" stroke-linejoin="round"/><path d="M10.382 1.122v.693h.669v-.693h-.669zm.832 0v.693h1.662v-.693h-1.662zm1.663.832v.684h-.66v-.684h.66zm-.832 0v.684h-1.663v-.684h1.663z" stroke="#1CA856" stroke-width=".248" stroke-miterlimit="22.926" stroke-linecap="round"/><path d="M10.48 2.793h1.55l-.042.44h-1.23l-.277-.44zm2.348 0h-.611l-.09.44h.432l.269-.44z" stroke="#1CA856" stroke-width=".248" stroke-miterlimit="22.926" stroke-linecap="round" stroke-linejoin="round"/><path d="M3.357 6.99c.367-.26.742-.366 1.108 0m-1.205.343a.877.877 0 01.757.065m-.864.188c.196.016.367.073.506.228m-.677-.024c.138.065.26.138.367.252m-.652-.106c.228.114.407.27.48.538M19.944 6.99c-.367-.26-.742-.366-1.109 0m1.206.343c-.228-.073-.473-.098-.758.065m.864.188c-.196.016-.367.073-.505.228m.676-.024c-.138.065-.26.138-.366.252m.651-.106c-.228.114-.415.27-.489.538" stroke="#1CA856" stroke-width=".495" stroke-miterlimit="22.926" stroke-linecap="round" stroke-linejoin="round"/><path d="M9.812 7.21c-.106-.594-.684-.74-.929-.268-.212.644.163.994.62 1.027.595-.033.88-.563.709-1.296-.35-.888-1.402-.864-2.079-.359-1.597.946-2.103 1.125-3.097.318 1.255 2.111 3.163-.367 4.181-.367.497 0 .799.563.595.946v0zm3.676 0c.106-.594.677-.74.93-.268.211.644-.164.994-.62 1.027-.595-.033-.88-.563-.71-1.296.351-.888 1.403-.864 2.08-.359 1.597.946 2.102 1.125 3.088.318-1.255 2.111-3.154-.367-4.173-.367-.497 0-.799.563-.595.946v0z" stroke="#1CA856" stroke-width=".33" stroke-miterlimit="22.926" stroke-linecap="round" stroke-linejoin="round"/><path d="M1.76 9.224c-.196-.269-.041-.644.268-.611.506-.09.8 1.019.88 3.325.074 2.176-.024 2.926-.725 3.138-.53.106-.84-.391-.53-.66a.198.198 0 01.286.057c-.057-.114-.212-.114-.286-.057-.301.245-.016.766.53.66.228-.04.546-.562.22-1.01-.456-.538-1.442-.196-1.402.61.09.416.253.661.79.824.881.212 1.59-.554 1.615-1.81.04-1.768.13-3.928-.75-5.265-.449-.521-1.443-.44-1.54.457.032 1.108 1.401.986 1.426.252-.098-.334-.253-.554-.53-.53-.293-.016-.448.36-.253.62zm19.78 0c.197-.269.042-.644-.268-.611-.505-.09-.799 1.019-.88 3.325-.074 2.176.024 2.926.725 3.138.53.106.84-.391.53-.66a.198.198 0 00-.285.057c.057-.114.203-.114.285-.057.293.245.016.766-.53.66-.228-.04-.546-.562-.22-1.01.448-.538 1.443-.196 1.402.61-.09.416-.253.661-.79.824-.88.212-1.59-.554-1.615-1.81-.04-1.768-.13-3.928.75-5.265.449-.521 1.443-.44 1.54.457-.04 1.108-1.401.986-1.426.252.098-.334.253-.554.522-.53.302-.016.457.36.26.62v0z" stroke="#1CA856" stroke-width=".495" stroke-miterlimit="22.926" stroke-linecap="round" stroke-linejoin="round"/><path d="M11.646 28.272a.39.39 0 01.39.383.391.391 0 01-.782 0 .39.39 0 01.392-.383zm-8.86-8.509c.644-.245 1.182.513.79 1.092-.35.4-.7.18-.627-.09-.065.204.187.367.359.139.195-.237.008-.514-.261-.481-.334 0-.514.293-.57.611-.147 1.288.39 2.494 1.303 3.652-1.491-.946-2.257-4.337-.994-4.923v0z" stroke="#1CA856" stroke-width=".33" stroke-miterlimit="22.926" stroke-linecap="round" stroke-linejoin="round"/><path d="M3.895 8.075h15.568l-.017 11.614a7.792 7.792 0 11-15.584 0l.033-11.614z" stroke="#1CA856" stroke-width=".495" stroke-miterlimit="22.926" stroke-linecap="round" stroke-linejoin="round"/><path fill-rule="evenodd" clip-rule="evenodd" d="M4.253 19.69l.033-11.224h14.785l-.016 11.223a7.405 7.405 0 01-7.4 7.401 7.406 7.406 0 01-7.402-7.4z" fill="#009847" stroke="#1CA856" stroke-width=".495" stroke-miterlimit="22.926" stroke-linecap="round" stroke-linejoin="round"/><path fill-rule="evenodd" clip-rule="evenodd" d="M11.654 5.05v1.598l.449-.627-.449-.97z" fill="#1CA856" stroke="#1CA856" stroke-width=".165" stroke-miterlimit="22.926" stroke-linecap="round" stroke-linejoin="round"/><path d="M11.654 5.05v1.598l-.456-.627.456-.97z" stroke="#1CA856" stroke-width=".165" stroke-miterlimit="22.926" stroke-linecap="round" stroke-linejoin="round"/><path fill-rule="evenodd" clip-rule="evenodd" d="M10.138 6.151l1.516.497-.457-.627-1.06.13z" fill="#1CA856" stroke="#1CA856" stroke-width=".165" stroke-miterlimit="22.926" stroke-linecap="round" stroke-linejoin="round"/><path d="M10.138 6.151l1.516.497-.734.237-.782-.734z" stroke="#1CA856" stroke-width=".165" stroke-miterlimit="22.926" stroke-linecap="round" stroke-linejoin="round"/><path fill-rule="evenodd" clip-rule="evenodd" d="M10.717 7.936l.937-1.296-.734.245-.203 1.051z" fill="#1CA856" stroke="#1CA856" stroke-width=".165" stroke-miterlimit="22.926" stroke-linecap="round" stroke-linejoin="round"/><path d="M10.717 7.936l.937-1.296v.775l-.937.521z" stroke="#1CA856" stroke-width=".165" stroke-miterlimit="22.926" stroke-linecap="round" stroke-linejoin="round"/><path fill-rule="evenodd" clip-rule="evenodd" d="M12.592 7.936l-.938-1.296v.775l.938.521z" fill="#1CA856" stroke="#1CA856" stroke-width=".165" stroke-miterlimit="22.926" stroke-linecap="round" stroke-linejoin="round"/><path d="M12.592 7.936l-.938-1.296.734.245.204 1.051z" stroke="#1CA856" stroke-width=".165" stroke-miterlimit="22.926" stroke-linecap="round" stroke-linejoin="round"/><path fill-rule="evenodd" clip-rule="evenodd" d="M13.17 6.151l-1.516.497.734.237.782-.734z" fill="#1CA856" stroke="#1CA856" stroke-width=".165" stroke-miterlimit="22.926" stroke-linecap="round" stroke-linejoin="round"/><path d="M13.17 6.151l-1.516.497.449-.627 1.067.13z" stroke="#1CA856" stroke-width=".165" stroke-miterlimit="22.926" stroke-linecap="round" stroke-linejoin="round"/><path fill-rule="evenodd" clip-rule="evenodd" d="M11.646 13.446l.18-.016c.505-.098.888-.538.896-1.068 0-.53-.383-.97-.888-1.068l-.188-.016v-.008h-.025v.008l-.187.016a1.077 1.077 0 00-.88 1.068c0 .53.383.97.888 1.068l.18.016h.024zm-.008-.35l-.122-.008a.765.765 0 01-.612-.726c0-.358.261-.66.603-.725l.13-.017.123.017a.743.743 0 01.603.725c0 .359-.26.652-.611.726l-.114.008z" fill="#fff" stroke="#fff" stroke-width=".133" stroke-miterlimit="22.926" stroke-linecap="round" stroke-linejoin="round"/><path fill-rule="evenodd" clip-rule="evenodd" d="M11.98 13.797v-.783l-.016-.057a.142.142 0 00-.139-.098c-.081 0-.146.074-.155.155h.009l-.009.783h.31zm-.636 0v-.783l.008-.057a.159.159 0 01.139-.098c.09 0 .155.074.155.155l.008.783h-.31 0zm-2.795 6.088a1.18 1.18 0 00-.228.424c-.188-.644-.212-1.239-.22-1.989.17.392.595.823 1.027 1.133-.196.025-.261.065-.335.147.677 1.165 2.543.66 2.413-1.215l.44.009.44-.009c-.122 1.875 1.744 2.38 2.421 1.215-.073-.082-.139-.122-.342-.147.44-.31.864-.741 1.035-1.133-.008.75-.033 1.345-.22 1.989a1.18 1.18 0 00-.229-.424c-.285.546-.758.799-1.336.799-.473 0-.938-.188-1.231-.562l-.538-.277-.53.277c-.293.375-.766.562-1.23.562-.58 0-1.052-.253-1.337-.799z" fill="#fff" stroke="#fff" stroke-width=".133" stroke-miterlimit="22.926" stroke-linecap="round" stroke-linejoin="round"/><path fill-rule="evenodd" clip-rule="evenodd" d="M7.578 21.417c-.179.204-.244.302-.301.498a10.76 10.76 0 01-.294-2.43c.449.734.88 1.036 1.394 1.395a.778.778 0 00-.489.17c.978 1.427 3.269 1.125 3.326-1.768l-.294-5.69.726.017.733-.016-.293 5.689c.057 2.893 2.347 3.195 3.325 1.769a.794.794 0 00-.489-.171c.514-.36.938-.66 1.394-1.394a10.764 10.764 0 01-.293 2.429c-.066-.196-.123-.294-.302-.498-.481.824-1.598 1.117-1.989 1.036-.733.016-1.972-.921-2.086-2.144-.106 1.223-1.345 2.16-2.079 2.144-.391.081-1.508-.212-1.989-1.036z" fill="#fff" stroke="#fff" stroke-width=".133" stroke-miterlimit="22.926" stroke-linecap="round" stroke-linejoin="round"/><path d="M7.807 27.098c-1.149-.505-2.274-1.092-3.211-2.054-.367-.448-.326-.758-.13-.904.334-.22.513.44.024.31.122.195.383.08.44-.18.09-.546-.513-.693-.815-.448-.35.391-.212.937.416 1.508 1.345 1.002 2.771 1.565 3.733 1.964l-.457-.196z" stroke="#1CA856" stroke-width=".33" stroke-miterlimit="22.926" stroke-linecap="round" stroke-linejoin="round"/><path d="M6.446 1.79l.546-.121.171.676-.546.122-.171-.676zm.693-.162l1.459-.326.114.692-1.41.326-.163-.692zm1.605-.286l.84.604.049.489-.775-.457-.114-.636zm.147.808l.758.456.074.627-.742-.448-.09-.636zm-.139 0l.106.627-.489.139-.122-.66.505-.107zm-.652.13l-1.442.326.179.693 1.377-.375L8.1 2.28zm.098.823l.473.367-.986.26-.62-.334 1.133-.293zm.204-.065l.522.4.643-.115-.62-.407-.545.122zm6.154-1.696l-.84.604-.057.489.783-.457.114-.636zm-.146.808l-.76.456-.072.627.741-.448.09-.636zm.04.79l1.336.269-.652.367-1.402-.245.718-.391zm.937.66l.57-.375.449.106-.628.383-.39-.114zm-4.792.448l-.041-.61a16.556 16.556 0 012.192-.009l-.04.611a15.455 15.455 0 00-2.11.008v0zm-2.145.31l-.122-.595c.644-.147 1.32-.253 2.013-.31l.05.604c-.677.057-1.321.163-1.94.301zm-.57.147l-.138-.595c.138-.04.285-.082.432-.114l.13.595c-.147.04-.285.073-.424.114v0zm.228.88l-.154-.62c.472-.146.97-.268 1.483-.358l.082.579c-.498.098-.97.236-1.41.4v0zm1.647-.44l-.073-.579c.595-.09 1.222-.138 1.866-.138l.008.546c-.636.008-1.23.065-1.801.171h0zM8.247 6.062l-.114-.465a9.912 9.912 0 013.342-.628l-.343.4a8.025 8.025 0 00-2.885.693v0zm6.603-1.704l.121-.595a14.406 14.406 0 00-2.013-.31l-.049.604c.677.057 1.32.163 1.94.301v0zm.561.147l.147-.595c-.147-.04-.285-.082-.432-.114l-.13.595c.138.04.285.073.415.114v0zm-.22.88l.155-.62c-.472-.146-.97-.268-1.483-.358l-.082.579c.498.098.97.236 1.41.4v0zm-1.646-.44l.073-.579a12.573 12.573 0 00-1.866-.138l-.008.546c.636.008 1.23.065 1.801.171h0zm1.508 1.117l.114-.465a9.912 9.912 0 00-3.342-.628l.343.4a8.027 8.027 0 012.885.693zm-.343-4.777l.587.139-.138.668-.546-.13.098-.677zm.743.155l1.402.335-.18.692-1.385-.334.163-.693zm1.214 1.174l-.18.62-.497-.123.18-.62.497.123zm-.636-.163l-1.442-.35-.098.7 1.36.278.18-.628z" stroke="#1CA856" stroke-width=".248" stroke-miterlimit="22.926" stroke-linecap="round" stroke-linejoin="round"/><path d="M11.646 28.272a.39.39 0 01.39.383.391.391 0 01-.782 0 .39.39 0 01.392-.383zm3.847-1.174c1.141-.505 2.274-1.092 3.203-2.054.367-.448.334-.758.13-.904-.325-.22-.505.44-.024.31-.114.195-.375.08-.432-.18-.09-.546.514-.693.815-.448.35.391.212.937-.415 1.508-1.345 1.002-2.772 1.565-3.733 1.964l.456-.196zm5.022-7.335c-.644-.245-1.19.513-.791 1.092.35.4.7.18.62-.09.072.204-.188.367-.351.139-.196-.236-.008-.514.26-.48.335 0 .514.293.571.61.147 1.288-.4 2.495-1.304 3.652 1.483-.946 2.258-4.336.995-4.923v0zm-17.728 0c.643-.245 1.181.513.79 1.092-.35.4-.7.18-.628-.09-.065.204.188.367.36.139.195-.236.007-.514-.262-.48-.334 0-.513.293-.57.61-.147 1.288.391 2.495 1.304 3.652-1.492-.946-2.258-4.336-.994-4.923v0zm5.02 7.335c-1.149-.505-2.274-1.092-3.211-2.054-.367-.448-.326-.758-.13-.904.334-.22.513.44.024.31.122.195.383.08.44-.18.09-.546-.513-.693-.815-.448-.35.391-.212.937.416 1.508 1.345 1.002 2.771 1.565 3.733 1.964l-.457-.196z" stroke="#1CA856" stroke-width=".33" stroke-miterlimit="22.926" stroke-linecap="round" stroke-linejoin="round"/><path d="M11.206 29.592c-.155-.228-.269-.203-.342-.016-.147-.318-.302-.44-.449-.521-.211.366-.423.407-.61.048-.84-1.393-1.981-1.508-3.644-2.42-2.804-1.557-5.877-3.97-3.44-8.795.196.147.228.44-.049.897-1.736 3.309.318 6.471 5.315 8.379.725.342 1.67.774 2.184 1.589a.81.81 0 01.652-.236c.138 0 .245.032.253.154.04.326.211.587.57.75.359-.163.538-.424.579-.75.008-.122.114-.154.253-.154a.81.81 0 01.652.236c.513-.815 1.459-1.247 2.184-1.59 4.996-1.907 7.05-5.07 5.306-8.378-.277-.457-.236-.75-.04-.897 2.436 4.825-.645 7.238-3.44 8.795-1.663.913-2.804 1.027-3.644 2.42-.195.359-.399.318-.61-.049-.148.082-.302.204-.45.522-.072-.187-.187-.212-.341.016-.066.098-.155.229-.449.408-.285-.18-.375-.31-.44-.408v0zm9.936-13.636c-.367.017-.652-.097-.824-.415m.734.733c-.294.098-.538.033-.726-.22m.701.554c-.301.172-.57.106-.823-.138m.864.505c-.334.204-.66.139-.987-.163m.955.546c-.31.261-.734.204-1.093-.081" stroke="#1CA856" stroke-width=".33" stroke-miterlimit="22.926" stroke-linecap="round" stroke-linejoin="round"/><path d="M21.802 15.386c-.465.13-.856.554-.734 1.37.18 1.197-.945 1.499-1.328.847M2.159 15.956c.367.017.652-.097.823-.415m-.733.733c.285.098.538.033.725-.22m-.701.554c.302.172.57.106.815-.138m-.856.505c.334.204.66.139.986-.163m-.953.546c.31.261.733.204 1.092-.081" stroke="#1CA856" stroke-width=".33" stroke-miterlimit="22.926" stroke-linecap="round" stroke-linejoin="round"/><path d="M1.499 15.386c.464.13.855.554.733 1.37-.18 1.197.946 1.499 1.329.847" stroke="#1CA856" stroke-width=".33" stroke-miterlimit="22.926" stroke-linecap="round" stroke-linejoin="round"/><path d="M11.36 4.978c.18-.017.376-.017.58 0" stroke="#1CA856" stroke-width=".248" stroke-miterlimit="22.926" stroke-linecap="round" stroke-linejoin="round"/></svg>