<svg width="16" height="16" viewBox="0 0 16 16" fill="none" xmlns="http://www.w3.org/2000/svg"><path d="M14.667 3.938a5.57 5.57 0 01-1.571.425 2.713 2.713 0 001.203-1.49 5.567 5.567 0 01-1.738.654 2.747 2.747 0 00-1.997-.85c-1.51 0-2.735 1.206-2.735 2.693 0 .21.024.417.07.613A7.805 7.805 0 012.262 3.17c-.243.41-.37.878-.37 1.354 0 .935.483 1.76 1.217 2.242a2.767 2.767 0 01-1.24-.338v.033c0 1.305.944 2.394 2.194 2.642a2.81 2.81 0 01-1.235.044 2.732 2.732 0 002.555 1.871 5.542 5.542 0 01-3.397 1.152c-.221 0-.439-.014-.653-.038a7.818 7.818 0 004.193 1.212c5.031 0 7.782-4.104 7.782-7.664l-.01-.348c.537-.378 1-.85 1.369-1.393z" fill="#262626"/></svg>