<svg width="16" height="16" viewBox="0 0 16 16" fill="none" xmlns="http://www.w3.org/2000/svg"><path d="M14.64 9.146v4.92h-2.853v-4.59c0-1.154-.412-1.94-1.444-1.94-.788 0-1.258.53-1.464 1.043-.075.183-.094.438-.094.695v4.791H5.93s.039-7.773 0-8.579h2.854v1.216l-.02.028h.02v-.028c.378-.583 1.055-1.417 2.57-1.417 1.877 0 3.284 1.226 3.284 3.861zM2.946 1.351c-.975 0-1.614.64-1.614 1.482 0 .823.62 1.482 1.577 1.482h.019c.995 0 1.613-.659 1.613-1.482-.017-.842-.617-1.482-1.594-1.482zM1.503 14.065h2.852V5.486H1.503v8.58z" fill="#262626"/></svg>