<svg width="21" height="16" viewBox="0 0 21 16" fill="none" xmlns="http://www.w3.org/2000/svg"><path d="M21 1.894c-.773.32-1.602.54-2.474.636.89-.5 1.571-1.292 1.894-2.234-.835.462-1.755.8-2.738.98A4.338 4.338 0 0016.248.33a4.514 4.514 0 00-1.71-.33c-2.379 0-4.307 1.81-4.307 4.04 0 .316.038.624.111.92a12.782 12.782 0 01-4.906-1.219A12.216 12.216 0 011.464.74 3.822 3.822 0 00.88 2.77c0 1.4.762 2.64 1.917 3.362a4.529 4.529 0 01-1.953-.506v.05a3.95 3.95 0 00.985 2.569A4.31 4.31 0 004.3 9.636c-.636.16-1.3.183-1.947.068.282.808.82 1.512 1.542 2.015.72.503 1.588.78 2.482.791a9.014 9.014 0 01-5.351 1.728c-.347 0-.689-.02-1.027-.056A12.769 12.769 0 006.602 16C14.528 16 18.86 9.844 18.86 4.504l-.015-.524A8.33 8.33 0 0021 1.894z" fill="#35B558"/></svg>